<mxfile host="Electron" agent="Mozilla/5.0 (Windows NT 10.0; Win64; x64) AppleWebKit/537.36 (KHTML, like Gecko) draw.io/28.1.2 Chrome/138.0.7204.243 Electron/37.4.0 Safari/537.36" version="28.1.2">
  <diagram name="Trang-1" id="6SB58YMGWHa__idLP2zv">
    <mxGraphModel dx="2404" dy="1160" grid="1" gridSize="10" guides="1" tooltips="1" connect="1" arrows="1" fold="1" page="1" pageScale="1" pageWidth="827" pageHeight="1169" math="0" shadow="0">
      <root>
        <mxCell id="0" />
        <mxCell id="1" parent="0" />
        <mxCell id="95idt6VhnrzyF9h_6PTl-1" value="" style="whiteSpace=wrap;html=1;aspect=fixed;" parent="1" vertex="1">
          <mxGeometry y="120" width="895" height="895" as="geometry" />
        </mxCell>
        <mxCell id="95idt6VhnrzyF9h_6PTl-2" value="Hệ thống quản lý cửa hàng tiện lợi" style="text;html=1;align=center;verticalAlign=middle;whiteSpace=wrap;rounded=0;fontSize=30;" parent="1" vertex="1">
          <mxGeometry x="200" y="50" width="520" height="60" as="geometry" />
        </mxCell>
        <mxCell id="95idt6VhnrzyF9h_6PTl-3" value="Người Dùng&lt;div&gt;&lt;br&gt;&lt;/div&gt;" style="shape=umlActor;verticalLabelPosition=bottom;verticalAlign=top;html=1;fontSize=20;" parent="1" vertex="1">
          <mxGeometry x="-380" y="430" width="50" height="90" as="geometry" />
        </mxCell>
        <mxCell id="95idt6VhnrzyF9h_6PTl-5" value="Quản lý sản phẩm" style="ellipse;whiteSpace=wrap;html=1;fontSize=15;fillColor=#d5e8d4;strokeColor=#82b366;" parent="1" vertex="1">
          <mxGeometry x="730" y="235" width="140" height="70" as="geometry" />
        </mxCell>
        <mxCell id="95idt6VhnrzyF9h_6PTl-10" value="Quản lý nhân viên" style="ellipse;whiteSpace=wrap;html=1;fontSize=15;fillColor=#e1d5e7;strokeColor=#9673a6;" parent="1" vertex="1">
          <mxGeometry x="380" y="300" width="140" height="70" as="geometry" />
        </mxCell>
        <mxCell id="95idt6VhnrzyF9h_6PTl-11" value="Quản lý khách hàng" style="ellipse;whiteSpace=wrap;html=1;fontSize=15;fillColor=#fff2cc;strokeColor=#d6b656;" parent="1" vertex="1">
          <mxGeometry x="580" y="305" width="140" height="70" as="geometry" />
        </mxCell>
        <mxCell id="95idt6VhnrzyF9h_6PTl-12" value="Quản lý hóa đơn" style="ellipse;whiteSpace=wrap;html=1;fontSize=15;fillColor=#dae8fc;strokeColor=#6c8ebf;" parent="1" vertex="1">
          <mxGeometry x="230" y="305" width="140" height="70" as="geometry" />
        </mxCell>
        <mxCell id="95idt6VhnrzyF9h_6PTl-13" value="Đăng Nhập" style="ellipse;whiteSpace=wrap;html=1;fontSize=15;" parent="1" vertex="1">
          <mxGeometry x="310" y="130" width="140" height="70" as="geometry" />
        </mxCell>
        <mxCell id="95idt6VhnrzyF9h_6PTl-14" value="Xem báo cáo thống kê" style="ellipse;whiteSpace=wrap;html=1;fontSize=15;fillColor=#f8cecc;strokeColor=#b85450;" parent="1" vertex="1">
          <mxGeometry x="20" y="305" width="150" height="80" as="geometry" />
        </mxCell>
        <mxCell id="95idt6VhnrzyF9h_6PTl-15" value="Đăng Xuất" style="ellipse;whiteSpace=wrap;html=1;fontSize=15;" parent="1" vertex="1">
          <mxGeometry x="50" y="810" width="140" height="70" as="geometry" />
        </mxCell>
        <mxCell id="95idt6VhnrzyF9h_6PTl-16" value="" style="endArrow=none;startArrow=none;endFill=0;startFill=0;endSize=8;html=1;verticalAlign=bottom;labelBackgroundColor=none;strokeWidth=3;rounded=0;entryX=0;entryY=0.5;entryDx=0;entryDy=0;exitX=0.5;exitY=0.5;exitDx=0;exitDy=0;exitPerimeter=0;" parent="1" source="95idt6VhnrzyF9h_6PTl-3" target="95idt6VhnrzyF9h_6PTl-13" edge="1">
          <mxGeometry width="160" relative="1" as="geometry">
            <mxPoint x="60" y="320" as="sourcePoint" />
            <mxPoint x="220" y="320" as="targetPoint" />
          </mxGeometry>
        </mxCell>
        <mxCell id="95idt6VhnrzyF9h_6PTl-26" value="" style="endArrow=none;startArrow=none;endFill=0;startFill=0;endSize=8;html=1;verticalAlign=bottom;labelBackgroundColor=none;strokeWidth=3;rounded=0;entryX=0;entryY=0.5;entryDx=0;entryDy=0;exitX=0.554;exitY=0.614;exitDx=0;exitDy=0;exitPerimeter=0;" parent="1" source="95idt6VhnrzyF9h_6PTl-3" target="95idt6VhnrzyF9h_6PTl-15" edge="1">
          <mxGeometry width="160" relative="1" as="geometry">
            <mxPoint x="180" y="490" as="sourcePoint" />
            <mxPoint x="415" y="490" as="targetPoint" />
          </mxGeometry>
        </mxCell>
        <mxCell id="95idt6VhnrzyF9h_6PTl-35" value="" style="endArrow=none;startArrow=none;endFill=0;startFill=0;endSize=8;html=1;verticalAlign=bottom;labelBackgroundColor=none;strokeWidth=3;rounded=0;exitX=0.5;exitY=1;exitDx=0;exitDy=0;" parent="1" source="95idt6VhnrzyF9h_6PTl-10" edge="1">
          <mxGeometry width="160" relative="1" as="geometry">
            <mxPoint x="550" y="650" as="sourcePoint" />
            <mxPoint x="450" y="530" as="targetPoint" />
          </mxGeometry>
        </mxCell>
        <mxCell id="95idt6VhnrzyF9h_6PTl-37" value="" style="endArrow=none;startArrow=none;endFill=0;startFill=0;endSize=8;html=1;verticalAlign=bottom;labelBackgroundColor=none;strokeWidth=3;rounded=0;" parent="1" edge="1">
          <mxGeometry width="160" relative="1" as="geometry">
            <mxPoint x="89.99571428571437" y="530" as="sourcePoint" />
            <mxPoint x="800" y="530" as="targetPoint" />
          </mxGeometry>
        </mxCell>
        <mxCell id="95idt6VhnrzyF9h_6PTl-38" value="" style="endArrow=none;startArrow=none;endFill=0;startFill=0;endSize=8;html=1;verticalAlign=bottom;labelBackgroundColor=none;strokeWidth=3;rounded=0;exitX=0.5;exitY=1;exitDx=0;exitDy=0;" parent="1" source="95idt6VhnrzyF9h_6PTl-14" edge="1">
          <mxGeometry width="160" relative="1" as="geometry">
            <mxPoint x="150" y="460" as="sourcePoint" />
            <mxPoint x="90" y="530" as="targetPoint" />
          </mxGeometry>
        </mxCell>
        <mxCell id="95idt6VhnrzyF9h_6PTl-39" value="" style="endArrow=none;startArrow=none;endFill=0;startFill=0;endSize=8;html=1;verticalAlign=bottom;labelBackgroundColor=none;strokeWidth=3;rounded=0;exitX=0.5;exitY=1;exitDx=0;exitDy=0;" parent="1" source="95idt6VhnrzyF9h_6PTl-12" edge="1">
          <mxGeometry width="160" relative="1" as="geometry">
            <mxPoint x="410" y="690" as="sourcePoint" />
            <mxPoint x="300" y="530" as="targetPoint" />
          </mxGeometry>
        </mxCell>
        <mxCell id="95idt6VhnrzyF9h_6PTl-40" value="" style="endArrow=none;startArrow=none;endFill=0;startFill=0;endSize=8;html=1;verticalAlign=bottom;labelBackgroundColor=none;strokeWidth=3;rounded=0;entryX=0.5;entryY=1;entryDx=0;entryDy=0;" parent="1" target="95idt6VhnrzyF9h_6PTl-11" edge="1">
          <mxGeometry width="160" relative="1" as="geometry">
            <mxPoint x="650" y="530" as="sourcePoint" />
            <mxPoint x="630" y="640" as="targetPoint" />
          </mxGeometry>
        </mxCell>
        <mxCell id="95idt6VhnrzyF9h_6PTl-41" value="" style="endArrow=none;startArrow=none;endFill=0;startFill=0;endSize=8;html=1;verticalAlign=bottom;labelBackgroundColor=none;strokeWidth=3;rounded=0;entryX=0.5;entryY=1;entryDx=0;entryDy=0;" parent="1" target="95idt6VhnrzyF9h_6PTl-5" edge="1">
          <mxGeometry width="160" relative="1" as="geometry">
            <mxPoint x="800" y="530" as="sourcePoint" />
            <mxPoint x="520" y="700" as="targetPoint" />
          </mxGeometry>
        </mxCell>
        <mxCell id="95idt6VhnrzyF9h_6PTl-42" value="" style="endArrow=none;startArrow=none;endFill=0;startFill=0;endSize=8;html=1;verticalAlign=bottom;labelBackgroundColor=none;strokeWidth=3;rounded=0;exitX=0.5;exitY=0.5;exitDx=0;exitDy=0;exitPerimeter=0;" parent="1" source="95idt6VhnrzyF9h_6PTl-3" edge="1">
          <mxGeometry width="160" relative="1" as="geometry">
            <mxPoint x="-310" y="420" as="sourcePoint" />
            <mxPoint x="460" y="630" as="targetPoint" />
          </mxGeometry>
        </mxCell>
        <mxCell id="95idt6VhnrzyF9h_6PTl-43" value="" style="endArrow=none;startArrow=none;endFill=0;startFill=0;endSize=8;html=1;verticalAlign=bottom;labelBackgroundColor=none;strokeWidth=3;rounded=0;" parent="1" edge="1">
          <mxGeometry width="160" relative="1" as="geometry">
            <mxPoint x="460" y="630" as="sourcePoint" />
            <mxPoint x="450" y="520" as="targetPoint" />
          </mxGeometry>
        </mxCell>
        <mxCell id="CTpIXF07ZxmMaB9pCo80-1" value="Quản lý nhà cung cấp" style="ellipse;whiteSpace=wrap;html=1;fontSize=15;fillColor=#bac8d3;strokeColor=#23445d;" parent="1" vertex="1">
          <mxGeometry x="510" y="740" width="150" height="80" as="geometry" />
        </mxCell>
        <mxCell id="CTpIXF07ZxmMaB9pCo80-2" value="Quản lý phiếu nhập hàng" style="ellipse;whiteSpace=wrap;html=1;fontSize=15;fillColor=#b0e3e6;strokeColor=#0e8088;" parent="1" vertex="1">
          <mxGeometry x="300" y="750" width="150" height="80" as="geometry" />
        </mxCell>
        <mxCell id="CTpIXF07ZxmMaB9pCo80-5" value="" style="endArrow=none;startArrow=none;endFill=0;startFill=0;endSize=8;html=1;verticalAlign=bottom;labelBackgroundColor=none;strokeWidth=3;rounded=0;exitX=0.5;exitY=0;exitDx=0;exitDy=0;" parent="1" source="CTpIXF07ZxmMaB9pCo80-2" edge="1">
          <mxGeometry width="160" relative="1" as="geometry">
            <mxPoint x="440" y="850" as="sourcePoint" />
            <mxPoint x="460" y="630" as="targetPoint" />
          </mxGeometry>
        </mxCell>
        <mxCell id="CTpIXF07ZxmMaB9pCo80-7" value="" style="endArrow=none;startArrow=none;endFill=0;startFill=0;endSize=8;html=1;verticalAlign=bottom;labelBackgroundColor=none;strokeWidth=3;rounded=0;exitX=0.246;exitY=0.115;exitDx=0;exitDy=0;exitPerimeter=0;" parent="1" source="CTpIXF07ZxmMaB9pCo80-1" edge="1">
          <mxGeometry width="160" relative="1" as="geometry">
            <mxPoint x="490" y="920" as="sourcePoint" />
            <mxPoint x="460" y="630" as="targetPoint" />
          </mxGeometry>
        </mxCell>
        <mxCell id="7lFBKVnttaTTMCvJWGUc-2" value="&amp;lt;&amp;lt;include&amp;gt;&amp;gt;" style="html=1;verticalAlign=bottom;labelBackgroundColor=none;endArrow=open;endFill=0;dashed=1;rounded=0;entryX=0.5;entryY=0;entryDx=0;entryDy=0;exitX=0;exitY=1;exitDx=0;exitDy=0;" edge="1" parent="1" source="95idt6VhnrzyF9h_6PTl-13" target="95idt6VhnrzyF9h_6PTl-14">
          <mxGeometry width="160" relative="1" as="geometry">
            <mxPoint x="700" y="660" as="sourcePoint" />
            <mxPoint x="510" y="585" as="targetPoint" />
          </mxGeometry>
        </mxCell>
        <mxCell id="7lFBKVnttaTTMCvJWGUc-3" value="&amp;lt;&amp;lt;include&amp;gt;&amp;gt;" style="html=1;verticalAlign=bottom;labelBackgroundColor=none;endArrow=open;endFill=0;dashed=1;rounded=0;exitX=0.5;exitY=1;exitDx=0;exitDy=0;" edge="1" parent="1" source="95idt6VhnrzyF9h_6PTl-13" target="95idt6VhnrzyF9h_6PTl-12">
          <mxGeometry width="160" relative="1" as="geometry">
            <mxPoint x="967" y="780" as="sourcePoint" />
            <mxPoint x="590" y="630" as="targetPoint" />
          </mxGeometry>
        </mxCell>
        <mxCell id="7lFBKVnttaTTMCvJWGUc-4" value="&amp;lt;&amp;lt;include&amp;gt;&amp;gt;" style="html=1;verticalAlign=bottom;labelBackgroundColor=none;endArrow=open;endFill=0;dashed=1;rounded=0;exitX=1;exitY=1;exitDx=0;exitDy=0;entryX=0.5;entryY=0;entryDx=0;entryDy=0;" edge="1" parent="1" source="95idt6VhnrzyF9h_6PTl-13" target="95idt6VhnrzyF9h_6PTl-10">
          <mxGeometry width="160" relative="1" as="geometry">
            <mxPoint x="977" y="750" as="sourcePoint" />
            <mxPoint x="600" y="600" as="targetPoint" />
          </mxGeometry>
        </mxCell>
        <mxCell id="7lFBKVnttaTTMCvJWGUc-5" value="&amp;lt;&amp;lt;include&amp;gt;&amp;gt;" style="html=1;verticalAlign=bottom;labelBackgroundColor=none;endArrow=open;endFill=0;dashed=1;rounded=0;exitX=1;exitY=0.5;exitDx=0;exitDy=0;entryX=0.5;entryY=0;entryDx=0;entryDy=0;" edge="1" parent="1" source="95idt6VhnrzyF9h_6PTl-13" target="95idt6VhnrzyF9h_6PTl-5">
          <mxGeometry width="160" relative="1" as="geometry">
            <mxPoint x="967" y="740" as="sourcePoint" />
            <mxPoint x="590" y="590" as="targetPoint" />
          </mxGeometry>
        </mxCell>
        <mxCell id="7lFBKVnttaTTMCvJWGUc-8" value="&amp;lt;&amp;lt;include&amp;gt;&amp;gt;" style="html=1;verticalAlign=bottom;labelBackgroundColor=none;endArrow=open;endFill=0;dashed=1;rounded=0;entryX=0.5;entryY=0;entryDx=0;entryDy=0;exitX=0.62;exitY=1.012;exitDx=0;exitDy=0;exitPerimeter=0;" edge="1" parent="1" source="95idt6VhnrzyF9h_6PTl-13" target="CTpIXF07ZxmMaB9pCo80-1">
          <mxGeometry width="160" relative="1" as="geometry">
            <mxPoint x="997" y="790" as="sourcePoint" />
            <mxPoint x="620" y="640" as="targetPoint" />
          </mxGeometry>
        </mxCell>
        <mxCell id="7lFBKVnttaTTMCvJWGUc-9" value="&amp;lt;&amp;lt;include&amp;gt;&amp;gt;" style="html=1;verticalAlign=bottom;labelBackgroundColor=none;endArrow=open;endFill=0;dashed=1;rounded=0;exitX=0.5;exitY=1;exitDx=0;exitDy=0;entryX=0.376;entryY=0.042;entryDx=0;entryDy=0;entryPerimeter=0;" edge="1" parent="1" source="95idt6VhnrzyF9h_6PTl-13" target="CTpIXF07ZxmMaB9pCo80-2">
          <mxGeometry width="160" relative="1" as="geometry">
            <mxPoint x="1037" y="800" as="sourcePoint" />
            <mxPoint x="320" y="750" as="targetPoint" />
          </mxGeometry>
        </mxCell>
      </root>
    </mxGraphModel>
  </diagram>
</mxfile>
